<svg width="283" height="283" viewBox="0 0 283 283" fill="none" xmlns="http://www.w3.org/2000/svg">
<path d="M176.816 215.681H38.8281C17.4234 215.681 0 198.266 0 176.846V38.8348C0 17.4155 17.4234 0 38.8281 0H176.816C198.22 0 215.644 17.4155 215.644 38.8348V176.846C215.644 198.266 198.22 215.681 176.816 215.681ZM38.8281 7.65758C21.6453 7.65758 7.65625 21.6491 7.65625 38.8348V176.846C7.65625 194.032 21.6453 208.024 38.8281 208.024H176.816C194.009 208.024 207.988 194.032 207.988 176.846V38.8348C207.988 21.6491 194.009 7.65758 176.816 7.65758H38.8281Z" fill="white"/>
<path opacity="0.44" d="M243.371 282.259H180.262C158.857 282.259 141.434 264.843 141.434 243.424V180.304C141.434 158.884 158.857 141.469 180.262 141.469H243.371C264.776 141.469 282.199 158.884 282.199 180.304V243.424C282.199 264.843 264.776 282.259 243.371 282.259ZM180.262 149.115C163.079 149.115 149.09 163.107 149.09 180.293V243.413C149.09 260.599 163.079 274.59 180.262 274.59H243.371C260.554 274.59 274.543 260.599 274.543 243.413V180.293C274.543 163.107 260.554 149.115 243.371 149.115H180.262Z" fill="white"/>
</svg>
