<svg width="443" height="373" viewBox="0 0 443 373" fill="none" xmlns="http://www.w3.org/2000/svg">
<path d="M383.686 372.136H130.089C97.4297 372.136 70.8516 345.554 70.8516 312.889V59.2478C70.8516 26.5827 97.4297 0 130.089 0H383.686C416.345 0 442.923 26.5827 442.923 59.2478V312.889C442.923 345.554 416.345 372.136 383.686 372.136ZM130.089 6.96839C101.269 6.96839 77.8187 30.4225 77.8187 59.2478V312.889C77.8187 341.714 101.269 365.168 130.089 365.168H383.686C412.506 365.168 435.956 341.714 435.956 312.889V59.2478C435.956 30.4225 412.506 6.96839 383.686 6.96839H130.089Z" fill="white"/>
<path opacity="0.5" d="M202.136 49.9609H13.125C5.87626 49.9609 0 55.8382 0 63.0882V252.132C0 259.382 5.87626 265.259 13.125 265.259H202.136C209.385 265.259 215.261 259.382 215.261 252.132V63.0882C215.261 55.8382 209.385 49.9609 202.136 49.9609Z" fill="white"/>
</svg>
