<svg width="186" height="156" viewBox="0 0 186 156" fill="none" xmlns="http://www.w3.org/2000/svg">
<path d="M160.86 155.864H54.5352C40.8465 155.864 29.6997 144.727 29.6997 131.05V24.8145C29.6997 11.1373 40.8465 0 54.5352 0H160.86C174.549 0 185.696 11.1373 185.696 24.8145V131.05C185.696 144.727 174.549 155.864 160.86 155.864ZM54.5352 2.91935C42.4535 2.91935 32.6215 12.743 32.6215 24.8145V131.05C32.6215 143.121 42.4535 152.945 54.5352 152.945H160.86C172.942 152.945 182.774 143.121 182.774 131.05V24.8145C182.774 12.743 172.942 2.91935 160.86 2.91935H54.5352Z" fill="white"/>
<path opacity="0.5" d="M72.7241 20.9307H17.5309C7.84887 20.9307 0 28.7729 0 38.4468V93.5934C0 103.267 7.84887 111.109 17.5309 111.109H72.7241C82.4062 111.109 90.2551 103.267 90.2551 93.5934V38.4468C90.2551 28.7729 82.4062 20.9307 72.7241 20.9307Z" fill="white"/>
</svg>
