<svg width="133" height="133" viewBox="0 0 133 133" fill="none" xmlns="http://www.w3.org/2000/svg">
<path d="M76.2157 132.831H25.5659C11.4682 132.831 0 121.373 0 107.287V56.6801C0 42.5942 11.4682 31.1357 25.5659 31.1357H76.2157C90.3135 31.1357 101.782 42.5942 101.782 56.6801V107.287C101.782 121.373 90.3135 132.831 76.2157 132.831ZM25.5659 35.5148C13.8787 35.5148 4.38273 45.0027 4.38273 56.6801V107.287C4.38273 118.964 13.8787 128.452 25.5659 128.452H76.2157C87.903 128.452 97.3989 118.964 97.3989 107.287V56.6801C97.3989 45.0027 87.903 35.5148 76.2157 35.5148H25.5659Z" fill="white"/>
<path opacity="0.5" d="M113.221 66.6634H85.9454C75.0763 66.6634 66.2231 57.8178 66.2231 46.9578V19.7056C66.2231 8.84564 75.0763 0 85.9454 0H113.221C124.09 0 132.943 8.84564 132.943 19.7056V46.9578C132.943 57.8178 124.09 66.6634 113.221 66.6634ZM85.9454 4.37903C77.4868 4.37903 70.6059 11.2541 70.6059 19.7056V46.9578C70.6059 55.4093 77.4868 62.2844 85.9454 62.2844H113.221C121.679 62.2844 128.56 55.4093 128.56 46.9578V19.7056C128.56 11.2541 121.679 4.37903 113.221 4.37903H85.9454Z" fill="white"/>
</svg>
