<svg width="46" height="46" viewBox="0 0 46 46" fill="none" xmlns="http://www.w3.org/2000/svg">
<path d="M0 23C0 10.2975 10.2975 0 23 0C35.7025 0 46 10.2975 46 23C46 35.7025 35.7025 46 23 46C10.2975 46 0 35.7025 0 23Z" fill="#F1E8E2"/>
<path d="M26.4881 14H23.7711C22.1587 14 20.3653 14.6962 20.3653 17.0958C20.3732 17.9319 20.3653 18.7327 20.3653 19.6339H18.5V22.6813H20.423V31.4544H23.9567V22.6234H26.289L26.5 19.6253H23.8958C23.8958 19.6253 23.9016 18.2916 23.8958 17.9043C23.8958 16.956 24.8568 17.0103 24.9146 17.0103C25.3719 17.0103 26.2612 17.0117 26.4894 17.0103V14H26.4881Z" fill="#061835"/>
</svg>
