<svg width="20" height="20" viewBox="0 0 20 20" fill="none" xmlns="http://www.w3.org/2000/svg">
<path d="M18 0C19.1046 2.57702e-07 20 0.895431 20 2V18C20 19.1046 19.1046 20 18 20H13.1465C13.156 19.9283 13.1748 19.614 13.1748 19.5303V17.3291C13.1747 16.3525 12.5378 15.056 11.665 14.5947C14.8365 14.2622 16.3496 12.6626 16.3496 10.4912C16.3496 9.55723 15.9585 8.65442 15.2939 7.89355C15.5157 7.13831 15.7947 5.58856 15.2129 5C13.7808 5.00018 12.916 5.94235 12.7109 6.19434C11.9972 5.94558 11.2121 5.80473 10.3887 5.80469C9.56684 5.80469 8.78443 5.94525 8.07227 6.19238C7.8648 5.93876 7.0005 5 5.57129 5C4.9919 5.58769 5.26793 7.13075 5.4873 7.8877C4.8188 8.65018 4.4248 9.55562 4.4248 10.4912C4.42484 12.6643 5.94093 14.2648 9.11719 14.5957C8.56635 14.8872 8.11618 15.5051 7.85547 16.1758C7.37059 16.2531 6.85493 16.2725 6.51074 16.2725C5.80101 16.2724 5.62212 16.1581 5.24219 15.6533C4.8608 15.1496 4.4554 14.8101 3.9668 14.6699C3.7021 14.6417 3.52711 14.8504 3.75684 15.0332C4.5307 15.5823 4.58522 16.4795 4.89746 17.0664C5.1788 17.5945 5.75868 17.8788 6.41113 17.8789H7.61035V19.5303C7.61035 19.7179 7.63908 19.8696 7.68359 20H2C0.895431 20 1.61067e-08 19.1046 0 18V2C2.57706e-07 0.895431 0.895431 1.61064e-08 2 0H18Z" fill="#0079A4"/>
</svg>
