<svg width="20" height="20" viewBox="0 0 20 20" fill="none" xmlns="http://www.w3.org/2000/svg">
<path fill-rule="evenodd" clip-rule="evenodd" d="M20 6C20 2.68629 17.3137 0 14 0H6C2.68629 0 0 2.68629 0 6V14C0 17.3137 2.68629 20 6 20H14C17.3137 20 20 17.3137 20 14V6ZM5 10C5 7.2425 7.2425 5 10 5C12.7575 5 15 7.2425 15 10C15 12.7575 12.7575 15 10 15C7.2425 15 5 12.7575 5 10ZM15 4C15 3.5 15.5 3 16 3C16.5 3 17 3.5 17 4C17 4.5 16.5 5 16 5C15.5 5 15 4.5 15 4ZM7 10C7 8.34315 8.34315 7 10 7C11.6569 7 13 8.34315 13 10C13 11.6569 11.6569 13 10 13C8.34315 13 7 11.6569 7 10Z" fill="#0079A4"/>
</svg>
