<svg xmlns="http://www.w3.org/2000/svg" width="46" height="46" viewBox="0 0 46 46"><g transform="translate(-762 467)"><g transform="translate(762 -467)"><path d="M0,23A23,23,0,1,1,23,46,23,23,0,0,1,0,23Z" fill="#061835"/></g><g transform="translate(777.551 -451)"><path d="M14.953,4.276a5.314,5.314,0,0,0-.338-1.764A3.726,3.726,0,0,0,12.487.384,5.328,5.328,0,0,0,10.722.046C9.944.009,9.7,0,7.722,0S5.5.009,4.725.043A5.316,5.316,0,0,0,2.96.381a3.549,3.549,0,0,0-1.29.841A3.581,3.581,0,0,0,.832,2.509,5.329,5.329,0,0,0,.494,4.273c-.037.779-.046,1.026-.046,3s.009,2.222.043,3a5.314,5.314,0,0,0,.338,1.764,3.725,3.725,0,0,0,2.128,2.128,5.329,5.329,0,0,0,1.764.338c.776.034,1.023.043,3,.043s2.222-.008,3-.043a5.313,5.313,0,0,0,1.764-.338,3.72,3.72,0,0,0,2.128-2.128,5.332,5.332,0,0,0,.338-1.764c.034-.776.043-1.023.043-3s0-2.222-.037-3Zm-1.31,5.938a3.986,3.986,0,0,1-.25,1.35,2.413,2.413,0,0,1-1.381,1.381,4,4,0,0,1-1.35.25c-.767.034-1,.043-2.938.043s-2.174-.008-2.938-.043a3.984,3.984,0,0,1-1.35-.25A2.238,2.238,0,0,1,2.6,12.4a2.261,2.261,0,0,1-.543-.835,4,4,0,0,1-.25-1.35c-.034-.767-.043-1-.043-2.938s.008-2.174.043-2.938a3.984,3.984,0,0,1,.25-1.35,2.211,2.211,0,0,1,.546-.835,2.258,2.258,0,0,1,.835-.543,4,4,0,0,1,1.35-.25c.767-.034,1-.043,2.938-.043s2.174.009,2.938.043a3.986,3.986,0,0,1,1.35.25,2.236,2.236,0,0,1,.835.543,2.261,2.261,0,0,1,.543.835,4,4,0,0,1,.25,1.35c.034.767.043,1,.043,2.938s-.009,2.168-.043,2.935Zm0,0" fill="#fff"/><path d="M128.685,124.5a3.736,3.736,0,1,0,3.736,3.736A3.737,3.737,0,0,0,128.685,124.5Zm0,6.16a2.424,2.424,0,1,1,2.424-2.424A2.424,2.424,0,0,1,128.685,130.66Zm0,0" transform="translate(-120.963 -120.963)" fill="#fff"/><path d="M364.194,89.474a.872.872,0,1,1-.872-.872A.872.872,0,0,1,364.194,89.474Zm0,0" transform="translate(-351.716 -86.084)" fill="#fff"/></g></g></svg>