<svg xmlns="http://www.w3.org/2000/svg" width="46" height="46" viewBox="0 0 46 46"><g transform="translate(-762 467)"><g transform="translate(762 -467)"><path d="M0,23A23,23,0,1,1,23,46,23,23,0,0,1,0,23Z" fill="#061835"/></g><g transform="translate(768 -461)"><path d="M47.14,44.653v-5.01c0-2.462-.53-4.343-3.4-4.343a2.969,2.969,0,0,0-2.684,1.47h-.034V35.522H38.3v9.131h2.838V40.122c0-1.2.222-2.343,1.693-2.343,1.453,0,1.47,1.351,1.47,2.411v4.446H47.14Z" transform="translate(-23.461 -20.974)" fill="#fff"/><path d="M11.3,36.6h2.838v9.131H11.3Z" transform="translate(-1.078 -22.052)" fill="#fff"/><path d="M11.641,10a1.65,1.65,0,1,0,1.641,1.641A1.642,1.642,0,0,0,11.641,10Z" fill="#fff"/></g></g></svg>