<svg width="22" height="22" viewBox="0 0 22 22" fill="none" xmlns="http://www.w3.org/2000/svg">
<g id="YoutubeLogo" clip-path="url(#clip0_451_1969)">
<path id="Subtract" fill-rule="evenodd" clip-rule="evenodd" d="M2.52742 15.853C2.32633 15.0778 2.0625 13.5705 2.0625 11.0001C2.0625 8.42969 2.32633 6.92149 2.52398 6.15149C2.5769 5.9395 2.67957 5.74317 2.82349 5.57878C2.96741 5.41439 3.14843 5.28666 3.35156 5.20617C6.23219 4.095 11 4.12508 11 4.12508C11 4.12508 15.7678 4.095 18.6484 5.20188C18.8516 5.28236 19.0326 5.41009 19.1765 5.57448C19.3204 5.73888 19.4231 5.9352 19.476 6.14719C19.6771 6.92235 19.9409 8.42969 19.9409 11.0001C19.9409 13.5705 19.6771 15.0795 19.476 15.853C19.4225 16.0642 19.3195 16.2596 19.1757 16.4232C19.0318 16.5868 18.8511 16.7139 18.6484 16.794C15.7678 17.9052 11 17.8751 11 17.8751C11 17.8751 6.23219 17.9052 3.35156 16.794C3.14957 16.7135 2.96955 16.5862 2.82629 16.4226C2.68302 16.259 2.5806 16.0638 2.52742 15.853ZM9.625 8.25L13.75 11L9.625 13.75V8.25Z" fill="#061835"/>
</g>
<defs>
<clipPath id="clip0_451_1969">
<rect width="22" height="22" fill="white"/>
</clipPath>
</defs>
</svg>
