<svg width="46" height="46" viewBox="0 0 46 46" fill="none" xmlns="http://www.w3.org/2000/svg">
<path d="M0 23C0 10.2975 10.2975 0 23 0C35.7025 0 46 10.2975 46 23C46 35.7025 35.7025 46 23 46C10.2975 46 0 35.7025 0 23Z" fill="#F1E8E2"/>
<g clip-path="url(#clip0_269_303)">
<path fill-rule="evenodd" clip-rule="evenodd" d="M14.5274 27.853C14.3263 27.0778 14.0625 25.5705 14.0625 23.0001C14.0625 20.4297 14.3263 18.9215 14.524 18.1515C14.5769 17.9395 14.6796 17.7432 14.8235 17.5788C14.9674 17.4144 15.1484 17.2867 15.3516 17.2062C18.2322 16.095 23 16.1251 23 16.1251C23 16.1251 27.7678 16.095 30.6484 17.2019C30.8516 17.2824 31.0326 17.4101 31.1765 17.5745C31.3204 17.7389 31.4231 17.9352 31.476 18.1472C31.6771 18.9223 31.9409 20.4297 31.9409 23.0001C31.9409 25.5705 31.6771 27.0795 31.476 27.853C31.4225 28.0642 31.3195 28.2596 31.1757 28.4232C31.0318 28.5868 30.8511 28.7139 30.6484 28.794C27.7678 29.9052 23 29.8751 23 29.8751C23 29.8751 18.2322 29.9052 15.3516 28.794C15.1496 28.7135 14.9696 28.5862 14.8263 28.4226C14.683 28.259 14.5806 28.0638 14.5274 27.853ZM21.625 20.25L25.75 23L21.625 25.75V20.25Z" fill="#061835"/>
</g>
<defs>
<clipPath id="clip0_269_303">
<rect width="22" height="22" fill="white" transform="translate(12 12)"/>
</clipPath>
</defs>
</svg>
