<svg xmlns="http://www.w3.org/2000/svg" xmlns:xlink="http://www.w3.org/1999/xlink" width="46" height="46" viewBox="0 0 46 46"><defs><clipPath id="a"><rect width="22" height="22" transform="translate(12 12)" fill="#fff"/></clipPath></defs><path d="M0,23A23,23,0,1,1,23,46,23,23,0,0,1,0,23Z" fill="#061835"/><g clip-path="url(#a)"><path d="M14.527,27.853A19.835,19.835,0,0,1,14.063,23a20,20,0,0,1,.462-4.849,1.375,1.375,0,0,1,.828-.945C18.232,16.095,23,16.125,23,16.125s4.768-.03,7.648,1.077a1.375,1.375,0,0,1,.828.945A19.834,19.834,0,0,1,31.941,23a19.823,19.823,0,0,1-.465,4.853,1.375,1.375,0,0,1-.828.941C27.768,29.905,23,29.875,23,29.875s-4.768.03-7.648-1.081a1.375,1.375,0,0,1-.824-.941Zm7.1-7.6L25.75,23l-4.125,2.75Z" fill="#fff" fill-rule="evenodd"/></g></svg>