<svg width="20" height="20" viewBox="0 0 20 20" fill="none" xmlns="http://www.w3.org/2000/svg">
<path d="M17.5 8.33293H2.5M13.3333 1.66626V4.99959M6.66667 1.66626V4.99959M6.5 18.3329H13.5C14.9001 18.3329 15.6002 18.3329 16.135 18.0604C16.6054 17.8208 16.9878 17.4383 17.2275 16.9679C17.5 16.4331 17.5 15.7331 17.5 14.3329V7.33293C17.5 5.93279 17.5 5.23273 17.2275 4.69795C16.9878 4.22754 16.6054 3.84509 16.135 3.60541C15.6002 3.33293 14.9001 3.33293 13.5 3.33293H6.5C5.09987 3.33293 4.3998 3.33293 3.86502 3.60541C3.39462 3.84509 3.01217 4.22754 2.77248 4.69795C2.5 5.23273 2.5 5.93279 2.5 7.33293V14.3329C2.5 15.7331 2.5 16.4331 2.77248 16.9679C3.01217 17.4383 3.39462 17.8208 3.86502 18.0604C4.3998 18.3329 5.09987 18.3329 6.5 18.3329Z" stroke="#101828" stroke-width="1.33" stroke-linecap="round" stroke-linejoin="round"/>
</svg>
