<svg width="20" height="20" viewBox="0 0 20 20" fill="none" xmlns="http://www.w3.org/2000/svg">
<path d="M7.49984 1.66663V3.33329M12.4998 1.66663V3.33329M7.49984 16.6666V18.3333M12.4998 16.6666V18.3333M16.6665 7.49996H18.3332M16.6665 11.6666H18.3332M1.6665 7.49996H3.33317M1.6665 11.6666H3.33317M7.33317 16.6666H12.6665C14.0666 16.6666 14.7667 16.6666 15.3015 16.3941C15.7719 16.1545 16.1543 15.772 16.394 15.3016C16.6665 14.7668 16.6665 14.0668 16.6665 12.6666V7.33329C16.6665 5.93316 16.6665 5.2331 16.394 4.69832C16.1543 4.22791 15.7719 3.84546 15.3015 3.60578C14.7667 3.33329 14.0666 3.33329 12.6665 3.33329H7.33317C5.93304 3.33329 5.23297 3.33329 4.69819 3.60578C4.22779 3.84546 3.84534 4.22791 3.60565 4.69832C3.33317 5.2331 3.33317 5.93316 3.33317 7.33329V12.6666C3.33317 14.0668 3.33317 14.7668 3.60565 15.3016C3.84534 15.772 4.22779 16.1545 4.69819 16.3941C5.23297 16.6666 5.93304 16.6666 7.33317 16.6666ZM8.83317 12.5H11.1665C11.6332 12.5 11.8666 12.5 12.0448 12.4091C12.2016 12.3292 12.3291 12.2018 12.409 12.045C12.4998 11.8667 12.4998 11.6333 12.4998 11.1666V8.83329C12.4998 8.36658 12.4998 8.13323 12.409 7.95497C12.3291 7.79817 12.2016 7.67068 12.0448 7.59079C11.8666 7.49996 11.6332 7.49996 11.1665 7.49996H8.83317C8.36646 7.49996 8.13311 7.49996 7.95485 7.59079C7.79804 7.67068 7.67056 7.79817 7.59067 7.95497C7.49984 8.13323 7.49984 8.36658 7.49984 8.83329V11.1666C7.49984 11.6333 7.49984 11.8667 7.59067 12.045C7.67056 12.2018 7.79804 12.3292 7.95485 12.4091C8.13311 12.5 8.36646 12.5 8.83317 12.5Z" stroke="#101828" stroke-width="1.33" stroke-linecap="round" stroke-linejoin="round"/>
</svg>
