<svg width="20" height="20" viewBox="0 0 20 20" fill="none" xmlns="http://www.w3.org/2000/svg">
<path d="M12.5 4.72811C14.4707 5.66433 15.8333 7.67308 15.8333 10.0001M6.99364 15C5.29961 13.9793 4.16663 12.122 4.16663 10M18.3333 10.0001C18.3333 14.6025 14.6023 18.3334 9.99996 18.3334C5.39759 18.3334 1.66663 14.6025 1.66663 10.0001C1.66663 5.39771 5.39759 1.66675 9.99996 1.66675C14.6023 1.66675 18.3333 5.39771 18.3333 10.0001ZM12.5 10.0001C12.5 11.3808 11.3807 12.5001 9.99996 12.5001C8.61925 12.5001 7.49996 11.3808 7.49996 10.0001C7.49996 8.61937 8.61925 7.50008 9.99996 7.50008C11.3807 7.50008 12.5 8.61937 12.5 10.0001Z" stroke="#101828" stroke-width="1.33" stroke-linecap="round" stroke-linejoin="round"/>
</svg>
