<svg width="12" height="15" viewBox="0 0 12 15" fill="none" xmlns="http://www.w3.org/2000/svg">
<path d="M7.33335 0.846436V3.60013C7.33335 3.9735 7.33335 4.16018 7.40602 4.30279C7.46993 4.42823 7.57192 4.53022 7.69736 4.59413C7.83997 4.6668 8.02665 4.6668 8.40002 4.6668H11.1537M4.00002 9.33341L6.00002 11.3334M6.00002 11.3334L8.00002 9.33341M6.00002 11.3334L6.00002 7.33341M7.33335 0.666748H3.86669C2.74658 0.666748 2.18653 0.666748 1.75871 0.884735C1.38238 1.07648 1.07642 1.38244 0.884674 1.75877C0.666687 2.18659 0.666687 2.74664 0.666687 3.86675V10.8001C0.666687 11.9202 0.666687 12.4802 0.884674 12.9081C1.07642 13.2844 1.38238 13.5903 1.75871 13.7821C2.18653 14.0001 2.74658 14.0001 3.86669 14.0001H8.13335C9.25346 14.0001 9.81351 14.0001 10.2413 13.7821C10.6177 13.5903 10.9236 13.2844 11.1154 12.9081C11.3334 12.4802 11.3334 11.9202 11.3334 10.8001V4.66675L7.33335 0.666748Z" stroke="#0079A4" stroke-width="1.33333" stroke-linecap="round" stroke-linejoin="round"/>
</svg>
