<svg width="20" height="20" viewBox="0 0 20 20" fill="none" xmlns="http://www.w3.org/2000/svg">
<path d="M11.7592 5.60173H16.7836C17.1564 5.60173 17.3428 5.60173 17.4518 5.68009C17.5469 5.74847 17.6088 5.85372 17.6224 5.97006C17.638 6.10339 17.5474 6.26631 17.3664 6.59215L16.1418 8.79648C16.0761 8.91465 16.0433 8.97373 16.0305 9.03631C16.0191 9.09168 16.0191 9.1488 16.0305 9.20418C16.0433 9.26675 16.0761 9.32584 16.1418 9.44401L17.3664 11.6483C17.5474 11.9742 17.638 12.1371 17.6224 12.2704C17.6088 12.3868 17.5469 12.492 17.4518 12.5604C17.3428 12.6388 17.1564 12.6388 16.7836 12.6388H10.4537C9.98698 12.6388 9.75363 12.6388 9.57537 12.5479C9.41857 12.468 9.29108 12.3406 9.21119 12.1838C9.12036 12.0055 9.12036 11.7721 9.12036 11.3054V9.12024M6.04167 17.9168L2.52315 3.84269M3.84263 9.12029H10.4259C10.8926 9.12029 11.126 9.12029 11.3042 9.02946C11.461 8.94957 11.5885 8.82208 11.6684 8.66528C11.7593 8.48702 11.7593 8.25367 11.7593 7.78696V3.41659C11.7593 2.94987 11.7593 2.71652 11.6684 2.53826C11.5885 2.38146 11.461 2.25397 11.3042 2.17408C11.126 2.08325 10.8926 2.08325 10.4259 2.08325H3.79102C3.20892 2.08325 2.91787 2.08325 2.7188 2.20386C2.54432 2.30958 2.41469 2.47561 2.35445 2.67052C2.28572 2.8929 2.35631 3.17526 2.4975 3.73998L3.84263 9.12029Z" stroke="#101828" stroke-width="1.33" stroke-linecap="round" stroke-linejoin="round"/>
</svg>
