<svg width="24" height="24" viewBox="0 0 24 24" fill="none" xmlns="http://www.w3.org/2000/svg">
<circle cx="12.3684" cy="12.3684" r="10.7034" stroke="#0079A4" stroke-width="1.33"/>
<mask id="path-2-inside-1_47414_168" fill="white">
<path d="M12.3978 15.5266C16.5833 15.5266 20.0623 17.4258 20.7845 19.9299C18.7025 22.2647 15.6736 23.7365 12.2992 23.7366C9.00633 23.7366 6.04231 22.3351 3.96616 20.0979C4.5777 17.5111 8.1191 15.5267 12.3978 15.5266Z"/>
</mask>
<path d="M12.3978 15.5266V14.1966H12.3978L12.3978 15.5266ZM20.7845 19.9299L21.7772 20.8151L22.2659 20.267L22.0624 19.5614L20.7845 19.9299ZM12.2992 23.7366V25.0666H12.2992L12.2992 23.7366ZM3.96616 20.0979L2.67183 19.7919L2.50858 20.4825L2.99127 21.0026L3.96616 20.0979ZM12.3978 15.5266V16.8566C14.2988 16.8566 15.9965 17.2895 17.266 17.9638C18.5549 18.6484 19.2785 19.5075 19.5066 20.2985L20.7845 19.9299L22.0624 19.5614C21.5683 17.8482 20.1912 16.5056 18.5138 15.6146C16.8168 14.7133 14.6822 14.1966 12.3978 14.1966V15.5266ZM20.7845 19.9299L19.7919 19.0447C17.951 21.1091 15.2779 22.4065 12.2992 22.4066L12.2992 23.7366L12.2992 25.0666C16.0692 25.0665 19.4539 23.4204 21.7772 20.8151L20.7845 19.9299ZM12.2992 23.7366V22.4066C9.39218 22.4066 6.77654 21.1711 4.94104 19.1932L3.96616 20.0979L2.99127 21.0026C5.30807 23.4991 8.62048 25.0666 12.2992 25.0666V23.7366ZM3.96616 20.0979L5.26048 20.4039C5.45012 19.6017 6.14769 18.7194 7.44554 18.0088C8.7232 17.3092 10.4537 16.8566 12.3978 16.8566L12.3978 15.5266L12.3978 14.1966C10.0632 14.1966 7.88365 14.7363 6.16805 15.6756C4.47264 16.6039 3.09374 18.0073 2.67183 19.7919L3.96616 20.0979Z" fill="#0079A4" mask="url(#path-2-inside-1_47414_168)"/>
<path d="M12.3058 5.92866C14.5548 5.92891 16.3771 7.75128 16.3771 9.99799C16.3769 12.2445 14.5546 14.0661 12.3058 14.0664C10.0567 14.0664 8.23372 12.2447 8.23352 9.99799C8.23352 7.75112 10.0566 5.92866 12.3058 5.92866Z" stroke="#0079A4" stroke-width="1.33"/>
</svg>
