<svg width="20" height="20" viewBox="0 0 20 20" fill="none" xmlns="http://www.w3.org/2000/svg">
<path d="M2.5 18.3333H10M9.16667 5.20999C9.69937 5.07288 10.2578 4.99996 10.8333 4.99996C14.5152 4.99996 17.5 7.98473 17.5 11.6666C17.5 14.4644 15.7765 16.8597 13.3333 17.8487M4.58333 10.8333H7.91667C8.30388 10.8333 8.49749 10.8333 8.65848 10.8653C9.31964 10.9968 9.83646 11.5137 9.96798 12.1748C10 12.3358 10 12.5294 10 12.9166C10 13.3038 10 13.4974 9.96798 13.6584C9.83646 14.3196 9.31964 14.8364 8.65848 14.9679C8.49749 15 8.30388 15 7.91667 15H4.58333C4.19612 15 4.00251 15 3.84152 14.9679C3.18037 14.8364 2.66354 14.3196 2.53202 13.6584C2.5 13.4974 2.5 13.3038 2.5 12.9166C2.5 12.5294 2.5 12.3358 2.53202 12.1748C2.66354 11.5137 3.18037 10.9968 3.84152 10.8653C4.00251 10.8333 4.19612 10.8333 4.58333 10.8333ZM3.33333 4.58329V10.8333H9.16667V4.58329C9.16667 2.97246 7.86083 1.66663 6.25 1.66663C4.63917 1.66663 3.33333 2.97246 3.33333 4.58329Z" stroke="#101828" stroke-width="1.33" stroke-linecap="round" stroke-linejoin="round"/>
</svg>
