<svg width="20" height="20" viewBox="0 0 20 20" fill="none" xmlns="http://www.w3.org/2000/svg">
<path d="M17.0846 5.83464V14.3346C17.0846 15.7348 17.0846 16.4348 16.8122 16.9696C16.5725 17.44 16.19 17.8225 15.7196 18.0622C15.1848 18.3346 14.4848 18.3346 13.0846 18.3346H6.91797C5.51784 18.3346 4.81777 18.3346 4.28299 18.0622C3.81259 17.8225 3.43014 17.44 3.19045 16.9696C2.91797 16.4348 2.91797 15.7348 2.91797 14.3346V5.83464M10.0013 14.168V11.668M10.0013 11.668V9.16797M10.0013 11.668H7.5013M10.0013 11.668H12.5013M3.0013 1.66797H17.0013C17.468 1.66797 17.7014 1.66797 17.8796 1.7588C18.0364 1.83869 18.1639 1.96617 18.2438 2.12298C18.3346 2.30124 18.3346 2.53459 18.3346 3.0013V4.5013C18.3346 4.96801 18.3346 5.20137 18.2438 5.37963C18.1639 5.53643 18.0364 5.66391 17.8796 5.74381C17.7014 5.83464 17.468 5.83464 17.0013 5.83464H3.0013C2.53459 5.83464 2.30124 5.83464 2.12298 5.74381C1.96617 5.66391 1.83869 5.53643 1.7588 5.37963C1.66797 5.20137 1.66797 4.96801 1.66797 4.5013V3.0013C1.66797 2.53459 1.66797 2.30124 1.7588 2.12298C1.83869 1.96617 1.96617 1.83869 2.12298 1.7588C2.30124 1.66797 2.53459 1.66797 3.0013 1.66797Z" stroke="#101828" stroke-width="1.33" stroke-linecap="round" stroke-linejoin="round"/>
</svg>
