<svg width="20" height="20" viewBox="0 0 20 20" fill="none" xmlns="http://www.w3.org/2000/svg">
<path d="M10.0664 6.49176C11.3044 6.49176 12.308 5.48813 12.308 4.25009C12.308 3.01205 11.3044 2.00842 10.0664 2.00842C8.82834 2.00842 7.82471 3.01205 7.82471 4.25009C7.82471 5.48813 8.82834 6.49176 10.0664 6.49176Z" stroke="#101828" stroke-width="1.33" stroke-miterlimit="10" stroke-linecap="round"/>
<path d="M6.5249 10.9917C7.11657 9.65834 8.45824 8.71667 9.9999 8.71667C11.5416 8.71667 12.8832 9.65001 13.4749 10.9833" stroke="#101828" stroke-width="1.33" stroke-miterlimit="10" stroke-linecap="round"/>
<path d="M12.9085 17.9917H7.2168" stroke="#101828" stroke-width="1.33" stroke-miterlimit="10" stroke-linecap="round"/>
<path d="M15.9914 7.89999C17.0592 7.89999 17.9248 7.03441 17.9248 5.96666C17.9248 4.89891 17.0592 4.03333 15.9914 4.03333C14.9237 4.03333 14.0581 4.89891 14.0581 5.96666C14.0581 7.03441 14.9237 7.89999 15.9914 7.89999Z" stroke="#101828" stroke-width="1.33" stroke-miterlimit="10" stroke-linecap="round"/>
<path d="M15.8497 10.0082C17.658 10.0082 19.1247 11.4748 19.1247 13.2832V17.7832C19.1247 17.8998 19.033 17.9915 18.9163 17.9915H12.7913C12.6747 17.9915 12.583 17.8998 12.583 17.7832V13.2832C12.583 11.4748 14.0497 10.0082 15.858 10.0082H15.8497Z" stroke="#101828" stroke-width="1.33" stroke-miterlimit="10" stroke-linecap="round"/>
<path d="M3.95824 7.89987C5.02599 7.89987 5.89157 7.03429 5.89157 5.96654C5.89157 4.89879 5.02599 4.0332 3.95824 4.0332C2.89049 4.0332 2.0249 4.89879 2.0249 5.96654C2.0249 7.03429 2.89049 7.89987 3.95824 7.89987Z" stroke="#101828" stroke-width="1.33" stroke-miterlimit="10" stroke-linecap="round"/>
<path d="M4.15 10.0083C5.95833 10.0083 7.425 11.475 7.425 13.2833V17.7833C7.425 17.9 7.33333 17.9916 7.21667 17.9916H1.08333C0.966667 17.9916 0.875 17.9 0.875 17.7833V13.2833C0.875 11.475 2.34167 10.0083 4.15 10.0083Z" stroke="#101828" stroke-width="1.33" stroke-miterlimit="10" stroke-linecap="round"/>
</svg>
