<svg width="161" height="134" viewBox="0 0 161 134" fill="none" xmlns="http://www.w3.org/2000/svg">
<g clip-path="url(#clip0_43_3128)">
<path opacity="0.7" d="M111.64 28.04V83.59C111.64 99.05 99.06 111.63 83.6 111.63H28.04C12.58 111.63 0 99.05 0 83.59V28.04C0 12.58 12.58 0 28.04 0H83.59C99.05 0 111.63 12.58 111.63 28.04H111.64ZM83.6 106.83C96.41 106.83 106.84 96.41 106.84 83.59V28.04C106.84 15.23 96.42 4.8 83.6 4.8H28.04C15.23 4.8 4.8 15.22 4.8 28.04V83.59C4.8 96.4 15.22 106.83 28.04 106.83H83.59H83.6Z" fill="#8AD8F4"/>
<path opacity="0.6" d="M121.67 83.71H97.9897C90.6388 83.71 84.6797 89.669 84.6797 97.02V120.69C84.6797 128.041 90.6388 134 97.9897 134H121.67C129.021 134 134.98 128.041 134.98 120.69V97.02C134.98 89.669 129.021 83.71 121.67 83.71Z" fill="#009BD2"/>
<path opacity="0.5" d="M161 89.51V73.38C161 66.95 155.77 61.72 149.34 61.72H133.21C126.78 61.72 121.55 66.95 121.55 73.38V89.51C121.55 95.94 126.78 101.17 133.21 101.17H149.34C155.77 101.17 161 95.94 161 89.51ZM158.41 89.51C158.41 94.51 154.34 98.58 149.34 98.58H133.21C128.21 98.58 124.14 94.51 124.14 89.51V73.38C124.14 68.38 128.21 64.31 133.21 64.31H149.34C154.34 64.31 158.41 68.38 158.41 73.38V89.51Z" fill="white"/>
</g>
<defs>
<clipPath id="clip0_43_3128">
<rect width="161" height="134" fill="white"/>
</clipPath>
</defs>
</svg>
