<svg xmlns="http://www.w3.org/2000/svg" width="178" height="24" viewBox="0 0 178 24" fill="none">
  <path d="M38.2684 2.99414H35.9343L29.583 19.2998H32.0289L33.837 14.4969H40.3001L42.1542 19.2998H44.6789L38.2717 2.99414H38.2684ZM39.4683 12.3469H34.6621L37.0554 6.01858L39.4683 12.3469Z" fill="#231F20"/>
  <path d="M58.1378 7.77148C56.8392 7.77148 55.544 8.36322 54.2816 9.52698C53.7885 8.35007 52.8154 7.77148 51.3163 7.77148C49.7351 7.77148 48.4793 8.66567 47.5391 9.4941L47.3024 8.00161H45.4482V19.2973H47.7363L47.7067 11.6046C48.808 10.4244 49.8074 9.85243 50.7575 9.85243C51.7897 9.85243 52.2697 10.4244 52.2697 11.6408V19.2973H54.5577L54.5281 11.6046C55.6294 10.4244 56.6255 9.85243 57.5789 9.85243C58.6112 9.85243 59.0911 10.4244 59.0911 11.6408V19.2973H61.3792V11.1345C61.3792 8.96811 60.2253 7.77148 58.1345 7.77148H58.1378Z" fill="#231F20"/>
  <path d="M68.5197 7.77108C67.3329 7.77108 66.2809 8.22475 65.3144 9.14852V2.30078L63.0264 2.6624V18.7117L63.1086 18.738C64.578 19.1818 65.7648 19.4349 67.4545 19.4349C70.9787 19.4349 72.9972 17.2126 72.9972 13.34C72.9972 9.23728 70.6861 7.77108 68.523 7.77108H68.5197ZM68.2172 9.82902C69.736 9.82902 70.6828 11.2097 70.6828 13.432C70.6828 16.1343 69.621 17.4493 67.4315 17.4493C66.4519 17.4493 65.9522 17.3408 65.3177 17.1107L65.2914 11.5944C66.2283 10.4208 67.2146 9.82573 68.2205 9.82573L68.2172 9.82902Z" fill="#231F20"/>
  <path d="M80.1402 8.00391H80.058C78.4931 8.08938 77.336 8.76002 76.4352 10.0651L76.1163 8.00391H74.2622V19.2995H76.5503L76.5371 12.6951C77.3853 11.0251 78.7989 10.1539 80.745 10.1539H80.9028L80.1369 8.00391H80.1402Z" fill="#231F20"/>
  <path d="M102.343 10.3284L102.682 12.5475H106.357V16.614C105.378 17.1433 104.464 17.357 103.221 17.357C99.7661 17.357 97.7838 15.1051 97.7838 11.1799C97.7838 7.25467 99.6872 4.98305 103.011 4.98305C104.651 4.98305 106.154 5.51233 107.492 6.55774L107.538 6.5939C107.538 6.5939 107.643 6.68923 107.653 6.60705C107.669 6.50842 108.031 4.18749 108.031 4.18749L107.972 4.14804C106.551 3.20126 104.983 2.76074 103.037 2.76074C98.346 2.76074 95.3149 6.07448 95.3149 11.2029C95.3149 16.3313 98.2703 19.599 103.225 19.599C105.148 19.599 107.14 19.0237 108.692 18.0243L108.744 17.9915V10.3251H102.35L102.343 10.3284Z" fill="#231F20"/>
  <path d="M127.366 7.77148C125.716 7.77148 124.408 8.71827 123.523 9.4941L123.287 8.00161H121.433V19.2973H123.721L123.694 11.6046C124.763 10.4573 125.844 9.85243 126.814 9.85243C127.863 9.85243 128.395 10.454 128.395 11.6408V19.2973H130.687V11.1345C130.687 9.03057 129.447 7.77148 127.37 7.77148H127.366Z" fill="#231F20"/>
  <path d="M148.606 17.3377L148.491 17.3574C148.245 17.4035 147.932 17.4265 147.561 17.4265C146.565 17.4265 146.141 17.0254 146.141 16.0753V9.96727H148.55L148.235 8.00138H146.141V4.1748L143.899 4.51012V8.00467H142.229V9.97056H143.899V16.4468C143.899 18.5179 144.96 19.4811 147.235 19.4811C147.83 19.4811 148.33 19.4384 148.81 19.3398L148.915 19.32L148.606 17.3377Z" fill="#231F20"/>
  <path d="M149.477 8.00488L149.793 9.96748H151.058V19.3005H153.346V8.00488H149.477Z" fill="#231F20"/>
  <path d="M152.212 6.3606C152.991 6.3606 153.625 5.72941 153.625 4.947C153.625 4.16459 152.991 3.51367 152.212 3.51367C151.433 3.51367 150.778 4.17116 150.778 4.947C150.778 5.72283 151.416 6.3606 152.212 6.3606Z" fill="#231F20"/>
  <path d="M163.591 16.2794C163.591 16.069 163.365 16.2958 163.365 16.2958C162.365 17.1473 161.455 17.4957 160.212 17.4957C158.174 17.4957 157.007 16.0887 157.007 13.6396C157.007 11.1904 158.118 9.80641 159.982 9.80641C161.225 9.80641 162.234 10.1779 163.253 11.0129L163.404 11.1345L163.746 8.85634L163.69 8.81689C162.733 8.12653 161.494 7.77148 160.002 7.77148C156.777 7.77148 154.692 10.0858 154.692 13.6659C154.692 17.2459 156.76 19.5339 159.956 19.5339C161.432 19.5339 162.536 19.1986 163.591 18.4655V16.2827V16.2794Z" fill="#231F20"/>
  <path d="M169.123 12.3963C167.262 11.9262 166.91 11.5054 166.91 10.9005C166.91 10.151 167.545 9.73676 168.702 9.73676C169.764 9.73676 170.97 10.0786 172.012 10.6737L172.154 10.7526L172.519 8.55985L172.437 8.52369C171.312 8.024 170.073 7.76758 168.748 7.76758C166.351 7.76758 164.737 9.04639 164.737 10.9432C164.737 13.1195 166.049 13.8592 168.469 14.4641C170.484 14.9572 171.006 15.3221 171.006 16.236C171.006 17.0908 170.227 17.5839 168.866 17.5839C167.206 17.5839 165.865 16.9034 165.03 16.3281C165.03 16.3281 164.77 16.1243 164.77 16.3741V18.5504C165.727 19.0501 167.259 19.5268 168.705 19.5268C171.509 19.5268 173.179 18.2447 173.179 16.0947C173.179 13.9447 171.756 13.0604 169.126 12.3897L169.123 12.3963Z" fill="#231F20"/>
  <path d="M141.148 16.3221C141.122 16.1479 141.02 16.2301 140.977 16.2629C140.037 16.9566 138.942 17.5418 137.44 17.5418C135.5 17.5418 134.429 16.3123 134.333 13.9847H141.848V13.4325C141.848 9.9412 140.001 7.77148 137.026 7.77148C134.051 7.77148 132.042 10.122 132.042 13.6166C132.042 17.3774 133.952 19.5339 137.282 19.5339C138.863 19.5339 140.221 19.1 141.431 18.2551C141.431 18.2551 141.171 16.5095 141.148 16.3254V16.3221ZM137.003 9.6256C138.429 9.6256 139.232 10.4442 139.518 12.2095H134.445C134.761 10.5888 135.711 9.6256 137.006 9.6256H137.003Z" fill="#231F20"/>
  <path d="M119.307 16.3221C119.28 16.1479 119.182 16.2301 119.139 16.2629C118.199 16.9566 117.101 17.5418 115.605 17.5418C113.665 17.5418 112.59 16.3123 112.495 13.9847H120.01V13.4325C120.01 9.9412 118.163 7.77148 115.187 7.77148C112.212 7.77148 110.204 10.122 110.204 13.6166C110.204 17.3774 112.114 19.5339 115.444 19.5339C117.028 19.5339 118.383 19.1 119.596 18.2551C119.596 18.2551 119.339 16.5095 119.313 16.3254L119.307 16.3221ZM115.158 9.6256C116.591 9.6256 117.39 10.4442 117.676 12.2095H112.603C112.919 10.5888 113.869 9.6256 115.161 9.6256H115.158Z" fill="#231F20"/>
  <path d="M89.5647 8.00391L86.6981 16.4263L83.8051 8.00391H81.4053L85.5737 19.1944L85.1562 20.3318C84.8472 21.1668 84.3212 21.5613 83.4994 21.5613C83.1542 21.5613 82.7531 21.5021 82.3685 21.4002L82.2041 21.3575L82.5197 23.4121L82.5953 23.4253C82.8024 23.4746 83.049 23.5239 83.3416 23.5239C85.0971 23.5239 86.3923 22.965 87.4114 20.2003L91.9251 8.00391H89.5713H89.5647Z" fill="#231F20"/>
  <path d="M176.209 10.786C175.15 10.786 174.427 10.0529 174.427 8.95487C174.427 7.85686 175.17 7.11719 176.218 7.11719C177.267 7.11719 178 7.86015 178 8.95487C178 10.0496 177.251 10.786 176.209 10.786ZM176.215 7.32758C175.354 7.32758 174.677 7.91275 174.677 8.95158C174.677 9.99041 175.364 10.569 176.209 10.569C177.053 10.569 177.747 9.98383 177.747 8.95158C177.747 7.91932 177.06 7.32758 176.215 7.32758ZM176.738 9.93452L176.13 9.06664H175.932V9.90165H175.594V7.8733H176.202C176.629 7.8733 176.912 8.08698 176.912 8.46504C176.912 8.75762 176.754 8.945 176.501 9.0239L177.093 9.85234L176.738 9.93124V9.93452ZM176.202 8.18889H175.932V8.78721H176.186C176.416 8.78721 176.557 8.69187 176.557 8.48805C176.557 8.28423 176.432 8.18889 176.202 8.18889Z" fill="#231F20"/>
  <mask id="mask0_46952_302" style="mask-type:luminance" maskUnits="userSpaceOnUse" x="0" y="0" width="24" height="24">
    <path d="M11.8972 23.7945C18.4679 23.7945 23.7945 18.4679 23.7945 11.8972C23.7945 5.32658 18.4679 0 11.8972 0C5.32658 0 0 5.32658 0 11.8972C0 18.4679 5.32658 23.7945 11.8972 23.7945Z" fill="white"/>
  </mask>
  <g mask="url(#mask0_46952_302)">
    <path d="M23.2928 8.06014C21.5308 9.11541 19.7917 9.65784 16.8758 9.65784C10.9978 9.65784 6.94112 6.57422 1.57602 6.57422C0.326791 6.57422 -0.00195312 6.92926 -0.00195312 7.58346V10.792C-0.00195312 11.4462 0.402402 11.5251 1.12564 11.3673C1.85874 11.2062 3.29206 11.0912 4.33418 11.0912C9.3015 11.0912 12.4311 13.3135 17.3327 13.3135C19.3939 13.3135 22.0042 12.0741 23.3389 10.9104C23.6742 10.6178 23.7958 10.3581 23.7958 9.51648V8.3593C23.7958 7.98453 23.5131 7.93193 23.2961 8.06014H23.2928Z" fill="#00AAE7"/>
    <path d="M23.0815 14.7243C21.3523 15.4705 20.1885 15.7631 17.8512 15.7631C13.5873 15.7631 8.99807 12.502 4.00774 12.502C3.12342 12.502 2.01555 12.6499 1.49942 12.7748C0.161434 13.0904 -0.0029379 13.3205 -0.0029379 14.9741V16.9334C-0.0029379 18.7185 -0.0916993 19.4253 1.43039 19.948C2.04842 20.165 3.2319 20.4378 4.39894 20.4378C8.86986 20.4378 11.3848 17.8375 16.0792 17.8375C19.6165 17.8375 21.589 18.942 23.0519 20.1485C23.4365 20.4641 23.7948 20.2274 23.7948 19.8823V15.1615C23.7948 14.6815 23.4628 14.5632 23.0815 14.7308V14.7243Z" fill="#00AAE7"/>
    <path d="M23.2994 3.76741C21.7576 4.8424 20.561 5.37825 18.3025 5.37825C13.0262 5.37825 8.12131 0 2.00339 0C0.431989 0 -0.00195312 0.28272 -0.00195312 0.861309V2.9324C-0.00195312 3.57345 0.35309 3.57673 1.11906 3.49455C1.4248 3.45839 1.8423 3.42223 2.24666 3.42223C7.29616 3.42223 12.1616 7.76493 17.9738 7.76493C20.8864 7.76493 22.5499 7.16991 23.3882 6.48283C23.7531 6.19025 23.7958 5.87137 23.7958 5.50318V3.94822C23.7958 3.67865 23.5263 3.60632 23.2994 3.76741Z" fill="#00AAE7"/>
    <path d="M23.3441 -5.04297H0.456954C0.207109 -5.04297 0 -4.8523 0 -4.61231V-1.65362C0 -1.1605 0.25642 -1.17365 0.739674 -1.21968C1.33799 -1.27885 2.08752 -1.36432 3.02444 -1.36432C9.3955 -1.36432 12.8868 2.63649 18.1006 2.63649C20.1882 2.63649 22.805 1.29193 23.5611 -0.950107C23.7583 -1.53527 23.7945 -2.19276 23.7945 -3.04749V-4.61231C23.7945 -4.84901 23.5907 -5.04297 23.3408 -5.04297H23.3441Z" fill="#00AAE7"/>
    <path d="M0.456954 26.6809C0.207109 26.6809 0 26.4837 0 26.247V23.7419C0 23.2817 0.243271 23.1075 0.828435 23.239C1.40045 23.3672 2.44586 23.5381 3.61947 23.5381C9.14895 23.5381 12.9427 19.2842 17.4037 19.2842C19.8331 19.2842 22.4006 20.5564 23.4855 22.3448C23.7583 22.7985 23.7978 23.4428 23.7978 24.1989V26.247C23.7978 26.4837 23.594 26.6809 23.3441 26.6809H0.456954Z" fill="#00AAE7"/>
  </g>
</svg>