<svg width="20" height="20" viewBox="0 0 20 20" fill="none" xmlns="http://www.w3.org/2000/svg">
<path d="M17.9844 5.99999C17.8944 5.64047 17.7111 5.31106 17.4531 5.04504C17.1951 4.77902 16.8714 4.58581 16.5148 4.48491C15.2118 4.16675 9.99996 4.16675 9.99996 4.16675C9.99996 4.16675 4.78811 4.16675 3.48515 4.51521C3.12853 4.61611 2.80486 4.80932 2.54682 5.07534C2.28878 5.34136 2.10551 5.67077 2.01553 6.03029C1.77706 7.35261 1.66042 8.69402 1.66706 10.0377C1.65856 11.3914 1.77521 12.743 2.01553 14.0753C2.11473 14.4237 2.30211 14.7406 2.55955 14.9953C2.81699 15.2501 3.13579 15.4342 3.48515 15.5298C4.78811 15.8783 9.99996 15.8783 9.99996 15.8783C9.99996 15.8783 15.2118 15.8783 16.5148 15.5298C16.8714 15.4289 17.1951 15.2357 17.4531 14.9697C17.7111 14.7036 17.8944 14.3742 17.9844 14.0147C18.221 12.7024 18.3377 11.3712 18.3329 10.0377C18.3414 8.6839 18.2247 7.33226 17.9844 5.99999Z" stroke="#101828" stroke-width="1.33" stroke-linecap="round" stroke-linejoin="round"/>
<path d="M8.12496 7.88786C8.12496 7.49012 8.12496 7.29125 8.20808 7.18023C8.28051 7.08348 8.39139 7.02294 8.51194 7.01433C8.65028 7.00445 8.81756 7.11199 9.15213 7.32707L12.4378 9.4393C12.7281 9.62593 12.8733 9.71925 12.9234 9.83791C12.9672 9.94159 12.9672 10.0586 12.9234 10.1623C12.8733 10.2809 12.7281 10.3742 12.4378 10.5609L9.15213 12.6731C8.81756 12.8882 8.65028 12.9957 8.51194 12.9858C8.39139 12.9772 8.28051 12.9167 8.20808 12.8199C8.12496 12.7089 8.12496 12.51 8.12496 12.1123V7.88786Z" stroke="#101828" stroke-width="1.33" stroke-linecap="round" stroke-linejoin="round"/>
</svg>
